<svg xmlns="http://www.w3.org/2000/svg" viewBox="0 0 16 16" shape-rendering="crispEdges"><rect width="16" height="16" fill="#ff4d8d"/><rect x="1" y="1" width="14" height="14" fill="#0d0b16"/><rect x="6" y="3" width="1" height="1" fill="#2b2438"/><rect x="7" y="3" width="1" height="1" fill="#2b2438"/><rect x="8" y="3" width="1" height="1" fill="#2b2438"/><rect x="9" y="3" width="1" height="1" fill="#2b2438"/><rect x="5" y="4" width="1" height="1" fill="#2b2438"/><rect x="6" y="4" width="1" height="1" fill="#2b2438"/><rect x="7" y="4" width="1" height="1" fill="#2b2438"/><rect x="8" y="4" width="1" height="1" fill="#2b2438"/><rect x="9" y="4" width="1" height="1" fill="#2b2438"/><rect x="10" y="4" width="1" height="1" fill="#2b2438"/><rect x="4" y="5" width="1" height="1" fill="#ff4d8d"/><rect x="5" y="5" width="1" height="1" fill="#2b2438"/><rect x="6" y="5" width="1" height="1" fill="#2b2438"/><rect x="7" y="5" width="1" height="1" fill="#2b2438"/><rect x="8" y="5" width="1" height="1" fill="#2b2438"/><rect x="9" y="5" width="1" height="1" fill="#2b2438"/><rect x="10" y="5" width="1" height="1" fill="#ff4d8d"/><rect x="4" y="6" width="1" height="1" fill="#ff4d8d"/><rect x="5" y="6" width="1" height="1" fill="#f0b98c"/><rect x="6" y="6" width="1" height="1" fill="#f0b98c"/><rect x="7" y="6" width="1" height="1" fill="#f0b98c"/><rect x="8" y="6" width="1" height="1" fill="#f0b98c"/><rect x="9" y="6" width="1" height="1" fill="#f0b98c"/><rect x="10" y="6" width="1" height="1" fill="#ff4d8d"/><rect x="4" y="7" width="1" height="1" fill="#ff4d8d"/><rect x="5" y="7" width="1" height="1" fill="#f0b98c"/><rect x="7" y="7" width="1" height="1" fill="#f0b98c"/><rect x="8" y="7" width="1" height="1" fill="#f0b98c"/><rect x="10" y="7" width="1" height="1" fill="#ff4d8d"/><rect x="4" y="8" width="1" height="1" fill="#ff4d8d"/><rect x="5" y="8" width="1" height="1" fill="#f0b98c"/><rect x="6" y="8" width="1" height="1" fill="#f0b98c"/><rect x="7" y="8" width="1" height="1" fill="#f0b98c"/><rect x="8" y="8" width="1" height="1" fill="#f0b98c"/><rect x="9" y="8" width="1" height="1" fill="#f0b98c"/><rect x="10" y="8" width="1" height="1" fill="#ff4d8d"/><rect x="5" y="9" width="1" height="1" fill="#f0b98c"/><rect x="6" y="9" width="1" height="1" fill="#f0b98c"/><rect x="7" y="9" width="1" height="1" fill="#f0b98c"/><rect x="8" y="9" width="1" height="1" fill="#f0b98c"/><rect x="9" y="9" width="1" height="1" fill="#f0b98c"/><rect x="11" y="9" width="1" height="1" fill="#ffc23d"/><rect x="6" y="10" width="1" height="1" fill="#f0b98c"/><rect x="7" y="10" width="1" height="1" fill="#f0b98c"/><rect x="8" y="10" width="1" height="1" fill="#f0b98c"/><rect x="6" y="11" width="1" height="1" fill="#5bd1ff"/><rect x="7" y="11" width="1" height="1" fill="#5bd1ff"/><rect x="8" y="11" width="1" height="1" fill="#5bd1ff"/><rect x="5" y="12" width="1" height="1" fill="#5bd1ff"/><rect x="6" y="12" width="1" height="1" fill="#5bd1ff"/><rect x="7" y="12" width="1" height="1" fill="#5bd1ff"/><rect x="8" y="12" width="1" height="1" fill="#5bd1ff"/><rect x="9" y="12" width="1" height="1" fill="#5bd1ff"/><rect x="10" y="12" width="1" height="1" fill="#5bd1ff"/><rect x="11" y="12" width="1" height="1" fill="#5bd1ff"/><rect x="4" y="13" width="1" height="1" fill="#5bd1ff"/><rect x="5" y="13" width="1" height="1" fill="#5bd1ff"/><rect x="6" y="13" width="1" height="1" fill="#5bd1ff"/><rect x="7" y="13" width="1" height="1" fill="#5bd1ff"/><rect x="8" y="13" width="1" height="1" fill="#5bd1ff"/><rect x="9" y="13" width="1" height="1" fill="#5bd1ff"/><rect x="10" y="13" width="1" height="1" fill="#5bd1ff"/><rect x="11" y="13" width="1" height="1" fill="#5bd1ff"/></svg>
